G04*
G04 #@! TF.GenerationSoftware,Altium Limited,Altium Designer,24.4.1 (13)*
G04*
G04 Layer_Color=65535*
%FSLAX44Y44*%
%MOMM*%
G71*
G04*
G04 #@! TF.SameCoordinates,F6539689-3043-445A-A8EF-E24C1B7FCDF9*
G04*
G04*
G04 #@! TF.FilePolarity,Positive*
G04*
G01*
G75*
%ADD10C,0.2540*%
%ADD11C,0.2500*%
%ADD12C,0.1000*%
%ADD13C,0.2000*%
%ADD14C,0.3000*%
%ADD15C,0.0500*%
%ADD16C,0.1524*%
D10*
X799620Y250190D02*
G03*
X799620Y250190I-30000J0D01*
G01*
X695480Y251460D02*
G03*
X695480Y251460I-30000J0D01*
G01*
X612930Y87630D02*
G03*
X612930Y87630I-30000J0D01*
G01*
Y217170D02*
G03*
X612930Y217170I-30000J0D01*
G01*
X278920Y938530D02*
G03*
X278920Y938530I-30000J0D01*
G01*
X669217Y849538D02*
G03*
X669217Y849538I-821J0D01*
G01*
X769620Y288036D02*
Y298196D01*
X764286Y292608D02*
X774446D01*
X665480Y289306D02*
Y299466D01*
X660146Y293878D02*
X670306D01*
X582930Y39624D02*
Y49784D01*
X578104Y45212D02*
X588264D01*
X582930Y169164D02*
Y179324D01*
X578104Y174752D02*
X588264D01*
X291338Y933705D02*
Y943865D01*
X286766Y938531D02*
X296926D01*
X755010Y872292D02*
Y913292D01*
Y968156D02*
Y1009156D01*
X631058Y872292D02*
Y913292D01*
X631034Y1007724D02*
X631058Y969172D01*
X281145Y1172611D02*
Y1121828D01*
X306537D01*
X315001Y1130292D01*
Y1164147D01*
X306537Y1172611D01*
X281145D01*
X331929Y1121828D02*
X348857D01*
X340393D01*
Y1155684D01*
X331929D01*
X374249Y1121828D02*
X399640D01*
X408104Y1130292D01*
X399640Y1138756D01*
X382713D01*
X374249Y1147220D01*
X382713Y1155684D01*
X408104D01*
X425032Y1104900D02*
Y1155684D01*
X450424D01*
X458888Y1147220D01*
Y1130292D01*
X450424Y1121828D01*
X425032D01*
X475816D02*
X492744D01*
X484280D01*
Y1172611D01*
X475816D01*
X526599Y1155684D02*
X543527D01*
X551991Y1147220D01*
Y1121828D01*
X526599D01*
X518135Y1130292D01*
X526599Y1138756D01*
X551991D01*
X568919Y1155684D02*
Y1130292D01*
X577383Y1121828D01*
X602775D01*
Y1113364D01*
X594311Y1104900D01*
X585847D01*
X602775Y1121828D02*
Y1155684D01*
X461015Y673098D02*
X466094D01*
X463554D01*
Y657862D01*
X461015D01*
X466094D01*
X483868Y670558D02*
X481329Y673098D01*
X476250D01*
X473711Y670558D01*
Y660402D01*
X476250Y657862D01*
X481329D01*
X483868Y660402D01*
X488946Y657862D02*
X494025D01*
X491485D01*
Y673098D01*
X488946Y670558D01*
X331476Y259083D02*
Y274317D01*
X339093D01*
X341632Y271778D01*
Y266700D01*
X339093Y264161D01*
X331476D01*
X336554D02*
X341632Y259083D01*
X356868Y274317D02*
X346711D01*
Y259083D01*
X356868D01*
X346711Y266700D02*
X351789D01*
X361946Y259083D02*
X367024D01*
X364485D01*
Y274317D01*
X361946Y271778D01*
X214286Y174374D02*
X209208D01*
X211747D01*
Y161678D01*
X209208Y159138D01*
X206669D01*
X204129Y161678D01*
X219364Y159138D02*
X224443D01*
X221904D01*
Y174374D01*
X219364Y171834D01*
X232060Y159138D02*
X237139D01*
X234600D01*
Y174374D01*
X232060Y171834D01*
X328587Y170564D02*
X323509D01*
X326048D01*
Y157868D01*
X323509Y155329D01*
X320969D01*
X318430Y157868D01*
X333665Y155329D02*
X338744D01*
X336204D01*
Y170564D01*
X333665Y168024D01*
X346361D02*
X348900Y170564D01*
X353979D01*
X356518Y168024D01*
Y157868D01*
X353979Y155329D01*
X348900D01*
X346361Y157868D01*
Y168024D01*
X453776Y166714D02*
X443619D01*
Y159096D01*
X448698D01*
X443619D01*
Y151478D01*
X458854D02*
X463933D01*
X461394D01*
Y166714D01*
X458854Y164174D01*
X596903Y863597D02*
Y848363D01*
X604521D01*
X607060Y850902D01*
Y861058D01*
X604521Y863597D01*
X596903D01*
X612138Y848363D02*
X617217D01*
X614678D01*
Y863597D01*
X612138Y861058D01*
X541018Y156204D02*
Y146047D01*
X538478D01*
X528322Y156204D01*
X525783D01*
Y146047D01*
X541018Y140969D02*
X525783D01*
Y133352D01*
X528322Y130812D01*
X538478D01*
X541018Y133352D01*
Y140969D01*
X525783Y125734D02*
Y120656D01*
Y123195D01*
X541018D01*
X538478Y125734D01*
X452127Y402588D02*
X462283D01*
X457205D01*
Y387352D01*
X467362D02*
Y402588D01*
X474979D01*
X477518Y400048D01*
Y394970D01*
X474979Y392431D01*
X467362D01*
X492753Y402588D02*
X482597D01*
Y394970D01*
X487675Y397509D01*
X490214D01*
X492753Y394970D01*
Y389892D01*
X490214Y387352D01*
X485136D01*
X482597Y389892D01*
X438157Y572767D02*
X448313D01*
X443235D01*
Y557533D01*
X453392D02*
Y572767D01*
X461009D01*
X463548Y570228D01*
Y565150D01*
X461009Y562611D01*
X453392D01*
X476244Y557533D02*
Y572767D01*
X468627Y565150D01*
X478783D01*
X300997Y575308D02*
X311153D01*
X306075D01*
Y560073D01*
X316232D02*
Y575308D01*
X323849D01*
X326388Y572768D01*
Y567690D01*
X323849Y565151D01*
X316232D01*
X331467Y572768D02*
X334006Y575308D01*
X339084D01*
X341623Y572768D01*
Y570229D01*
X339084Y567690D01*
X336545D01*
X339084D01*
X341623Y565151D01*
Y562612D01*
X339084Y560073D01*
X334006D01*
X331467Y562612D01*
X807718Y722623D02*
Y712467D01*
Y717545D01*
X792483D01*
Y707388D02*
X807718D01*
Y699771D01*
X805178Y697232D01*
X800100D01*
X797561Y699771D01*
Y707388D01*
X792483Y681997D02*
Y692153D01*
X802639Y681997D01*
X805178D01*
X807718Y684536D01*
Y689614D01*
X805178Y692153D01*
X76206Y734058D02*
X86362D01*
X81284D01*
Y718823D01*
X91441D02*
Y734058D01*
X99058D01*
X101597Y731519D01*
Y726440D01*
X99058Y723901D01*
X91441D01*
X106676Y718823D02*
X111754D01*
X109215D01*
Y734058D01*
X106676Y731519D01*
X157484Y320037D02*
X167641D01*
X162563D01*
Y304802D01*
X182876Y320037D02*
X172719D01*
Y312420D01*
X177798Y314959D01*
X180337D01*
X182876Y312420D01*
Y307342D01*
X180337Y304802D01*
X175258D01*
X172719Y307342D01*
X92708Y380996D02*
Y370839D01*
Y375918D01*
X77473D01*
Y358143D02*
X92708D01*
X85090Y365761D01*
Y355604D01*
X220984Y447038D02*
X231141D01*
X226063D01*
Y431802D01*
X236219Y444498D02*
X238758Y447038D01*
X243837D01*
X246376Y444498D01*
Y441959D01*
X243837Y439420D01*
X241297D01*
X243837D01*
X246376Y436881D01*
Y434342D01*
X243837Y431802D01*
X238758D01*
X236219Y434342D01*
X153674Y447038D02*
X163831D01*
X158752D01*
Y431802D01*
X179066D02*
X168909D01*
X179066Y441959D01*
Y444498D01*
X176527Y447038D01*
X171448D01*
X168909Y444498D01*
X293353Y404407D02*
X303510D01*
X298432D01*
Y389172D01*
X308588D02*
X313667D01*
X311128D01*
Y404407D01*
X308588Y401868D01*
X685803Y948688D02*
X683263Y951227D01*
X678185D01*
X675646Y948688D01*
Y946149D01*
X678185Y943610D01*
X683263D01*
X685803Y941071D01*
Y938532D01*
X683263Y935993D01*
X678185D01*
X675646Y938532D01*
X690881Y951227D02*
Y935993D01*
X695959Y941071D01*
X701038Y935993D01*
Y951227D01*
X706116Y935993D02*
X711194D01*
X708655D01*
Y951227D01*
X706116Y948688D01*
X453050Y305188D02*
Y320424D01*
X460668D01*
X463207Y317884D01*
Y312806D01*
X460668Y310267D01*
X453050D01*
X458129D02*
X463207Y305188D01*
X478442D02*
X468285D01*
X478442Y315345D01*
Y317884D01*
X475903Y320424D01*
X470825D01*
X468285Y317884D01*
X493677Y320424D02*
X483521D01*
Y312806D01*
X488599Y315345D01*
X491138D01*
X493677Y312806D01*
Y307728D01*
X491138Y305188D01*
X486060D01*
X483521Y307728D01*
X453930Y249308D02*
Y264543D01*
X461548D01*
X464087Y262004D01*
Y256926D01*
X461548Y254387D01*
X453930D01*
X459009D02*
X464087Y249308D01*
X479322D02*
X469165D01*
X479322Y259465D01*
Y262004D01*
X476783Y264543D01*
X471704D01*
X469165Y262004D01*
X492018Y249308D02*
Y264543D01*
X484400Y256926D01*
X494557D01*
X211213Y228948D02*
Y244184D01*
X218830D01*
X221369Y241644D01*
Y236566D01*
X218830Y234027D01*
X211213D01*
X216291D02*
X221369Y228948D01*
X236604D02*
X226448D01*
X236604Y239105D01*
Y241644D01*
X234065Y244184D01*
X228987D01*
X226448Y241644D01*
X241683D02*
X244222Y244184D01*
X249300D01*
X251840Y241644D01*
Y239105D01*
X249300Y236566D01*
X246761D01*
X249300D01*
X251840Y234027D01*
Y231488D01*
X249300Y228948D01*
X244222D01*
X241683Y231488D01*
X210827Y290833D02*
Y306068D01*
X218444D01*
X220983Y303528D01*
Y298450D01*
X218444Y295911D01*
X210827D01*
X215905D02*
X220983Y290833D01*
X236218D02*
X226062D01*
X236218Y300989D01*
Y303528D01*
X233679Y306068D01*
X228601D01*
X226062Y303528D01*
X251453Y290833D02*
X241297D01*
X251453Y300989D01*
Y303528D01*
X248914Y306068D01*
X243836D01*
X241297Y303528D01*
X152406Y360682D02*
Y375918D01*
X160023D01*
X162563Y373378D01*
Y368300D01*
X160023Y365761D01*
X152406D01*
X157484D02*
X162563Y360682D01*
X177798D02*
X167641D01*
X177798Y370839D01*
Y373378D01*
X175258Y375918D01*
X170180D01*
X167641Y373378D01*
X182876Y360682D02*
X187954D01*
X185415D01*
Y375918D01*
X182876Y373378D01*
X219717Y351792D02*
Y367028D01*
X227334D01*
X229873Y364488D01*
Y359410D01*
X227334Y356871D01*
X219717D01*
X224795D02*
X229873Y351792D01*
X245108D02*
X234952D01*
X245108Y361949D01*
Y364488D01*
X242569Y367028D01*
X237491D01*
X234952Y364488D01*
X250187D02*
X252726Y367028D01*
X257804D01*
X260343Y364488D01*
Y354332D01*
X257804Y351792D01*
X252726D01*
X250187Y354332D01*
Y364488D01*
X260352Y501998D02*
Y517234D01*
X267970D01*
X270509Y514694D01*
Y509616D01*
X267970Y507077D01*
X260352D01*
X265431D02*
X270509Y501998D01*
X275587D02*
X280665D01*
X278126D01*
Y517234D01*
X275587Y514694D01*
X288283Y504538D02*
X290822Y501998D01*
X295901D01*
X298440Y504538D01*
Y514694D01*
X295901Y517234D01*
X290822D01*
X288283Y514694D01*
Y512155D01*
X290822Y509616D01*
X298440D01*
X319942Y501998D02*
Y517234D01*
X327560D01*
X330099Y514694D01*
Y509616D01*
X327560Y507077D01*
X319942D01*
X325021D02*
X330099Y501998D01*
X335178D02*
X340256D01*
X337717D01*
Y517234D01*
X335178Y514694D01*
X347873D02*
X350413Y517234D01*
X355491D01*
X358030Y514694D01*
Y512155D01*
X355491Y509616D01*
X358030Y507077D01*
Y504538D01*
X355491Y501998D01*
X350413D01*
X347873Y504538D01*
Y507077D01*
X350413Y509616D01*
X347873Y512155D01*
Y514694D01*
X350413Y509616D02*
X355491D01*
X246772Y557879D02*
Y573114D01*
X254390D01*
X256929Y570575D01*
Y565496D01*
X254390Y562957D01*
X246772D01*
X251850D02*
X256929Y557879D01*
X262007D02*
X267085D01*
X264546D01*
Y573114D01*
X262007Y570575D01*
X274703Y573114D02*
X284860D01*
Y570575D01*
X274703Y560418D01*
Y557879D01*
X180346Y560073D02*
Y575308D01*
X187964D01*
X190503Y572768D01*
Y567690D01*
X187964Y565151D01*
X180346D01*
X185424D02*
X190503Y560073D01*
X195581D02*
X200660D01*
X198120D01*
Y575308D01*
X195581Y572768D01*
X218434Y575308D02*
X213356Y572768D01*
X208277Y567690D01*
Y562612D01*
X210816Y560073D01*
X215895D01*
X218434Y562612D01*
Y565151D01*
X215895Y567690D01*
X208277D01*
X384816Y505462D02*
Y520698D01*
X392434D01*
X394973Y518158D01*
Y513080D01*
X392434Y510541D01*
X384816D01*
X389894D02*
X394973Y505462D01*
X400051D02*
X405130D01*
X402590D01*
Y520698D01*
X400051Y518158D01*
X422904Y520698D02*
X412747D01*
Y513080D01*
X417826Y515619D01*
X420365D01*
X422904Y513080D01*
Y508002D01*
X420365Y505462D01*
X415286D01*
X412747Y508002D01*
X320437Y455933D02*
Y471168D01*
X328054D01*
X330593Y468629D01*
Y463550D01*
X328054Y461011D01*
X320437D01*
X325515D02*
X330593Y455933D01*
X335672D02*
X340750D01*
X338211D01*
Y471168D01*
X335672Y468629D01*
X355985Y455933D02*
Y471168D01*
X348368Y463550D01*
X358524D01*
X590556Y504193D02*
Y519427D01*
X598174D01*
X600713Y516888D01*
Y511810D01*
X598174Y509271D01*
X590556D01*
X595634D02*
X600713Y504193D01*
X605791D02*
X610870D01*
X608330D01*
Y519427D01*
X605791Y516888D01*
X618487D02*
X621026Y519427D01*
X626105D01*
X628644Y516888D01*
Y514349D01*
X626105Y511810D01*
X623565D01*
X626105D01*
X628644Y509271D01*
Y506732D01*
X626105Y504193D01*
X621026D01*
X618487Y506732D01*
X337826Y382272D02*
Y397508D01*
X345444D01*
X347983Y394968D01*
Y389890D01*
X345444Y387351D01*
X337826D01*
X342905D02*
X347983Y382272D01*
X353061D02*
X358140D01*
X355600D01*
Y397508D01*
X353061Y394968D01*
X375914Y382272D02*
X365757D01*
X375914Y392429D01*
Y394968D01*
X373375Y397508D01*
X368296D01*
X365757Y394968D01*
X522365Y502922D02*
Y518157D01*
X529983D01*
X532522Y515618D01*
Y510540D01*
X529983Y508001D01*
X522365D01*
X527444D02*
X532522Y502922D01*
X537600D02*
X542679D01*
X540140D01*
Y518157D01*
X537600Y515618D01*
X550296Y502922D02*
X555375D01*
X552835D01*
Y518157D01*
X550296Y515618D01*
X595246Y455933D02*
Y471168D01*
X602864D01*
X605403Y468629D01*
Y463550D01*
X602864Y461011D01*
X595246D01*
X600325D02*
X605403Y455933D01*
X610481D02*
X615560D01*
X613021D01*
Y471168D01*
X610481Y468629D01*
X623177D02*
X625716Y471168D01*
X630795D01*
X633334Y468629D01*
Y458472D01*
X630795Y455933D01*
X625716D01*
X623177Y458472D01*
Y468629D01*
X528324Y454663D02*
Y469897D01*
X535942D01*
X538481Y467358D01*
Y462280D01*
X535942Y459741D01*
X528324D01*
X533402D02*
X538481Y454663D01*
X543559Y457202D02*
X546098Y454663D01*
X551177D01*
X553716Y457202D01*
Y467358D01*
X551177Y469897D01*
X546098D01*
X543559Y467358D01*
Y464819D01*
X546098Y462280D01*
X553716D01*
X461014Y454663D02*
Y469897D01*
X468632D01*
X471171Y467358D01*
Y462280D01*
X468632Y459741D01*
X461014D01*
X466092D02*
X471171Y454663D01*
X476249Y467358D02*
X478788Y469897D01*
X483867D01*
X486406Y467358D01*
Y464819D01*
X483867Y462280D01*
X486406Y459741D01*
Y457202D01*
X483867Y454663D01*
X478788D01*
X476249Y457202D01*
Y459741D01*
X478788Y462280D01*
X476249Y464819D01*
Y467358D01*
X478788Y462280D02*
X483867D01*
X458474Y504193D02*
Y519427D01*
X466092D01*
X468631Y516888D01*
Y511810D01*
X466092Y509271D01*
X458474D01*
X463553D02*
X468631Y504193D01*
X473709Y519427D02*
X483866D01*
Y516888D01*
X473709Y506732D01*
Y504193D01*
X76327Y925195D02*
X61092D01*
Y932812D01*
X63631Y935352D01*
X68709D01*
X71249Y932812D01*
Y925195D01*
Y930273D02*
X76327Y935352D01*
X61092Y950587D02*
X63631Y945508D01*
X68709Y940430D01*
X73788D01*
X76327Y942969D01*
Y948048D01*
X73788Y950587D01*
X71249D01*
X68709Y948048D01*
Y940430D01*
X76327Y867165D02*
X61092D01*
Y874782D01*
X63631Y877322D01*
X68710D01*
X71249Y874782D01*
Y867165D01*
Y872243D02*
X76327Y877322D01*
X61092Y892557D02*
Y882400D01*
X68710D01*
X66170Y887478D01*
Y890017D01*
X68710Y892557D01*
X73788D01*
X76327Y890017D01*
Y884939D01*
X73788Y882400D01*
X76327Y811775D02*
X61092D01*
Y819392D01*
X63631Y821931D01*
X68710D01*
X71249Y819392D01*
Y811775D01*
Y816853D02*
X76327Y821931D01*
Y834627D02*
X61092D01*
X68710Y827010D01*
Y837166D01*
X161674Y752190D02*
X146438D01*
Y759808D01*
X148978Y762347D01*
X154056D01*
X156595Y759808D01*
Y752190D01*
Y757269D02*
X161674Y762347D01*
X148978Y767425D02*
X146438Y769965D01*
Y775043D01*
X148978Y777582D01*
X151517D01*
X154056Y775043D01*
Y772504D01*
Y775043D01*
X156595Y777582D01*
X159134D01*
X161674Y775043D01*
Y769965D01*
X159134Y767425D01*
X80393Y754730D02*
X65158D01*
Y762348D01*
X67698Y764887D01*
X72776D01*
X75315Y762348D01*
Y754730D01*
Y759809D02*
X80393Y764887D01*
Y780122D02*
Y769965D01*
X70237Y780122D01*
X67698D01*
X65158Y777583D01*
Y772505D01*
X67698Y769965D01*
X706123Y787402D02*
Y802637D01*
X713741D01*
X716280Y800098D01*
Y795020D01*
X713741Y792481D01*
X706123D01*
X711202D02*
X716280Y787402D01*
X721358D02*
X726437D01*
X723898D01*
Y802637D01*
X721358Y800098D01*
X187334Y495644D02*
Y480408D01*
X197491D01*
X212726D02*
X202569D01*
X212726Y490565D01*
Y493104D01*
X210187Y495644D01*
X205109D01*
X202569Y493104D01*
X659519Y405474D02*
Y390239D01*
X669676D01*
X674754D02*
X679833D01*
X677293D01*
Y405474D01*
X674754Y402935D01*
X386083Y878838D02*
X381004D01*
X383544D01*
Y866142D01*
X381004Y863603D01*
X378465D01*
X375926Y866142D01*
X391161Y863603D02*
X396240D01*
X393700D01*
Y878838D01*
X391161Y876298D01*
X414014Y863603D02*
X403857D01*
X414014Y873759D01*
Y876298D01*
X411475Y878838D01*
X406396D01*
X403857Y876298D01*
X254378Y886328D02*
X249300D01*
X251839D01*
Y873632D01*
X249300Y871093D01*
X246760D01*
X244221Y873632D01*
X259456Y883789D02*
X261995Y886328D01*
X267074D01*
X269613Y883789D01*
Y881249D01*
X267074Y878710D01*
X269613Y876171D01*
Y873632D01*
X267074Y871093D01*
X261995D01*
X259456Y873632D01*
Y876171D01*
X261995Y878710D01*
X259456Y881249D01*
Y883789D01*
X261995Y878710D02*
X267074D01*
X557531Y572767D02*
X552453D01*
X554992D01*
Y560072D01*
X552453Y557533D01*
X549913D01*
X547374Y560072D01*
X562609Y572767D02*
X572766D01*
Y570228D01*
X562609Y560072D01*
Y557533D01*
X806834Y622645D02*
Y627724D01*
Y625184D01*
X794138D01*
X791599Y627724D01*
Y630263D01*
X794138Y632802D01*
X806834Y607410D02*
X804294Y612488D01*
X799216Y617567D01*
X794138D01*
X791599Y615028D01*
Y609949D01*
X794138Y607410D01*
X796677D01*
X799216Y609949D01*
Y617567D01*
X394971Y575308D02*
X389893D01*
X392432D01*
Y562612D01*
X389893Y560073D01*
X387353D01*
X384814Y562612D01*
X410206Y575308D02*
X400049D01*
Y567690D01*
X405127Y570229D01*
X407667D01*
X410206Y567690D01*
Y562612D01*
X407667Y560073D01*
X402588D01*
X400049Y562612D01*
X806448Y801369D02*
Y806448D01*
Y803908D01*
X793752D01*
X791212Y806448D01*
Y808987D01*
X793752Y811526D01*
X791212Y788673D02*
X806448D01*
X798830Y796291D01*
Y786134D01*
X612141Y777237D02*
X607062D01*
X609602D01*
Y764542D01*
X607062Y762002D01*
X604523D01*
X601984Y764542D01*
X617219Y774698D02*
X619758Y777237D01*
X624837D01*
X627376Y774698D01*
Y772159D01*
X624837Y769620D01*
X622298D01*
X624837D01*
X627376Y767081D01*
Y764542D01*
X624837Y762002D01*
X619758D01*
X617219Y764542D01*
X702694Y142580D02*
Y137501D01*
Y140041D01*
X687459D01*
Y142580D01*
Y137501D01*
X700154Y119727D02*
X702694Y122266D01*
Y127345D01*
X700154Y129884D01*
X689998D01*
X687459Y127345D01*
Y122266D01*
X689998Y119727D01*
X687459Y107031D02*
X702694D01*
X695076Y114649D01*
Y104492D01*
X426726Y949958D02*
X431805D01*
X429265D01*
Y934723D01*
X426726D01*
X431805D01*
X449579Y947418D02*
X447040Y949958D01*
X441961D01*
X439422Y947418D01*
Y937262D01*
X441961Y934723D01*
X447040D01*
X449579Y937262D01*
X454657Y947418D02*
X457196Y949958D01*
X462275D01*
X464814Y947418D01*
Y944879D01*
X462275Y942340D01*
X459735D01*
X462275D01*
X464814Y939801D01*
Y937262D01*
X462275Y934723D01*
X457196D01*
X454657Y937262D01*
X551572Y339434D02*
X556651D01*
X554111D01*
Y324199D01*
X551572D01*
X556651D01*
X574425Y336895D02*
X571885Y339434D01*
X566807D01*
X564268Y336895D01*
Y326738D01*
X566807Y324199D01*
X571885D01*
X574425Y326738D01*
X589660Y324199D02*
X579503D01*
X589660Y334355D01*
Y336895D01*
X587121Y339434D01*
X582042D01*
X579503Y336895D01*
X313694Y196847D02*
Y181612D01*
X321312D01*
X323851Y184152D01*
Y194308D01*
X321312Y196847D01*
X313694D01*
X339086Y181612D02*
X328929D01*
X339086Y191769D01*
Y194308D01*
X336547Y196847D01*
X331468D01*
X328929Y194308D01*
X383929Y112104D02*
X381390Y114643D01*
X376312D01*
X373773Y112104D01*
Y101948D01*
X376312Y99408D01*
X381390D01*
X383929Y101948D01*
X389008Y99408D02*
Y114643D01*
X399165Y99408D01*
Y114643D01*
X404243D02*
X414399D01*
Y112104D01*
X404243Y101948D01*
Y99408D01*
X282329Y113374D02*
X279790Y115913D01*
X274712D01*
X272173Y113374D01*
Y103218D01*
X274712Y100678D01*
X279790D01*
X282329Y103218D01*
X287408Y100678D02*
Y115913D01*
X297565Y100678D01*
Y115913D01*
X312799D02*
X307721Y113374D01*
X302643Y108296D01*
Y103218D01*
X305182Y100678D01*
X310260D01*
X312799Y103218D01*
Y105757D01*
X310260Y108296D01*
X302643D01*
X175649Y113374D02*
X173110Y115913D01*
X168032D01*
X165493Y113374D01*
Y103218D01*
X168032Y100678D01*
X173110D01*
X175649Y103218D01*
X180728Y100678D02*
Y115913D01*
X190884Y100678D01*
Y115913D01*
X206119D02*
X195963D01*
Y108296D01*
X201041Y110835D01*
X203580D01*
X206119Y108296D01*
Y103218D01*
X203580Y100678D01*
X198502D01*
X195963Y103218D01*
X91443Y194308D02*
X88904Y196847D01*
X83826D01*
X81287Y194308D01*
Y184152D01*
X83826Y181612D01*
X88904D01*
X91443Y184152D01*
X96522Y181612D02*
Y196847D01*
X106678Y181612D01*
Y196847D01*
X119374Y181612D02*
Y196847D01*
X111757Y189230D01*
X121913D01*
X92713Y297178D02*
X90174Y299718D01*
X85096D01*
X82557Y297178D01*
Y287022D01*
X85096Y284482D01*
X90174D01*
X92713Y287022D01*
X97792Y284482D02*
Y299718D01*
X107948Y284482D01*
Y299718D01*
X113027Y297178D02*
X115566Y299718D01*
X120644D01*
X123183Y297178D01*
Y294639D01*
X120644Y292100D01*
X118105D01*
X120644D01*
X123183Y289561D01*
Y287022D01*
X120644Y284482D01*
X115566D01*
X113027Y287022D01*
X88019Y550255D02*
X85480Y552794D01*
X80402D01*
X77863Y550255D01*
Y540098D01*
X80402Y537559D01*
X85480D01*
X88019Y540098D01*
X93098Y537559D02*
Y552794D01*
X103254Y537559D01*
Y552794D01*
X118489Y537559D02*
X108333D01*
X118489Y547715D01*
Y550255D01*
X115950Y552794D01*
X110872D01*
X108333Y550255D01*
X90558Y668365D02*
X88019Y670904D01*
X82941D01*
X80402Y668365D01*
Y658208D01*
X82941Y655669D01*
X88019D01*
X90558Y658208D01*
X95637Y655669D02*
Y670904D01*
X105794Y655669D01*
Y670904D01*
X110872Y655669D02*
X115950D01*
X113411D01*
Y670904D01*
X110872Y668365D01*
X572773Y135888D02*
X570234Y138427D01*
X565155D01*
X562616Y135888D01*
Y125731D01*
X565155Y123192D01*
X570234D01*
X572773Y125731D01*
X577851Y123192D02*
X582930D01*
X580391D01*
Y138427D01*
X577851Y135888D01*
X590547D02*
X593086Y138427D01*
X598165D01*
X600704Y135888D01*
Y133349D01*
X598165Y130810D01*
X600704Y128271D01*
Y125731D01*
X598165Y123192D01*
X593086D01*
X590547Y125731D01*
Y128271D01*
X593086Y130810D01*
X590547Y133349D01*
Y135888D01*
X593086Y130810D02*
X598165D01*
X574043Y264158D02*
X571504Y266697D01*
X566426D01*
X563886Y264158D01*
Y254001D01*
X566426Y251462D01*
X571504D01*
X574043Y254001D01*
X579121Y251462D02*
X584200D01*
X581661D01*
Y266697D01*
X579121Y264158D01*
X591817Y266697D02*
X601974D01*
Y264158D01*
X591817Y254001D01*
Y251462D01*
X406403Y400048D02*
X403864Y402588D01*
X398785D01*
X396246Y400048D01*
Y389892D01*
X398785Y387352D01*
X403864D01*
X406403Y389892D01*
X411481Y387352D02*
X416560D01*
X414020D01*
Y402588D01*
X411481Y400048D01*
X434334Y402588D02*
X429255Y400048D01*
X424177Y394970D01*
Y389892D01*
X426716Y387352D01*
X431795D01*
X434334Y389892D01*
Y392431D01*
X431795Y394970D01*
X424177D01*
X667559Y472824D02*
X665020Y475364D01*
X659941D01*
X657402Y472824D01*
Y462668D01*
X659941Y460128D01*
X665020D01*
X667559Y462668D01*
X672637Y460128D02*
X677716D01*
X675176D01*
Y475364D01*
X672637Y472824D01*
X695490Y475364D02*
X685333D01*
Y467746D01*
X690411Y470285D01*
X692951D01*
X695490Y467746D01*
Y462668D01*
X692951Y460128D01*
X687872D01*
X685333Y462668D01*
X666289Y517274D02*
X663750Y519813D01*
X658671D01*
X656132Y517274D01*
Y507118D01*
X658671Y504578D01*
X663750D01*
X666289Y507118D01*
X671367Y504578D02*
X676446D01*
X673906D01*
Y519813D01*
X671367Y517274D01*
X691681Y504578D02*
Y519813D01*
X684063Y512196D01*
X694220D01*
X402475Y467359D02*
X399936Y469898D01*
X394858D01*
X392319Y467359D01*
Y457202D01*
X394858Y454663D01*
X399936D01*
X402475Y457202D01*
X407554Y454663D02*
X412632D01*
X410093D01*
Y469898D01*
X407554Y467359D01*
X420249D02*
X422789Y469898D01*
X427867D01*
X430406Y467359D01*
Y464819D01*
X427867Y462280D01*
X425328D01*
X427867D01*
X430406Y459741D01*
Y457202D01*
X427867Y454663D01*
X422789D01*
X420249Y457202D01*
X511231Y880494D02*
X508692Y883034D01*
X503614D01*
X501074Y880494D01*
Y870338D01*
X503614Y867798D01*
X508692D01*
X511231Y870338D01*
X516310Y867798D02*
X521388D01*
X518849D01*
Y883034D01*
X516310Y880494D01*
X539162Y867798D02*
X529006D01*
X539162Y877955D01*
Y880494D01*
X536623Y883034D01*
X531545D01*
X529006Y880494D01*
X241688Y985865D02*
X239149Y988404D01*
X234070D01*
X231531Y985865D01*
Y975708D01*
X234070Y973169D01*
X239149D01*
X241688Y975708D01*
X246766Y973169D02*
X251845D01*
X249306D01*
Y988404D01*
X246766Y985865D01*
X259462Y973169D02*
X264541D01*
X262001D01*
Y988404D01*
X259462Y985865D01*
X139831Y930135D02*
X137292Y927596D01*
Y922518D01*
X139831Y919979D01*
X149988D01*
X152527Y922518D01*
Y927596D01*
X149988Y930135D01*
X152527Y935214D02*
Y940292D01*
Y937753D01*
X137292D01*
X139831Y935214D01*
Y947910D02*
X137292Y950449D01*
Y955527D01*
X139831Y958066D01*
X149988D01*
X152527Y955527D01*
Y950449D01*
X149988Y947910D01*
X139831D01*
X139831Y875408D02*
X137292Y872868D01*
Y867790D01*
X139831Y865251D01*
X149988D01*
X152527Y867790D01*
Y872868D01*
X149988Y875408D01*
Y880486D02*
X152527Y883025D01*
Y888104D01*
X149988Y890643D01*
X139831D01*
X137292Y888104D01*
Y883025D01*
X139831Y880486D01*
X142370D01*
X144909Y883025D01*
Y890643D01*
X141101Y815718D02*
X138562Y813178D01*
Y808100D01*
X141101Y805561D01*
X151258D01*
X153797Y808100D01*
Y813178D01*
X151258Y815718D01*
X141101Y820796D02*
X138562Y823335D01*
Y828414D01*
X141101Y830953D01*
X143640D01*
X146180Y828414D01*
X148719Y830953D01*
X151258D01*
X153797Y828414D01*
Y823335D01*
X151258Y820796D01*
X148719D01*
X146180Y823335D01*
X143640Y820796D01*
X141101D01*
X146180Y823335D02*
Y828414D01*
X717551Y848358D02*
X715012Y850898D01*
X709933D01*
X707394Y848358D01*
Y838202D01*
X709933Y835663D01*
X715012D01*
X717551Y838202D01*
X722629Y850898D02*
X732786D01*
Y848358D01*
X722629Y838202D01*
Y835663D01*
X664211Y316228D02*
X661672Y318768D01*
X656593D01*
X654054Y316228D01*
Y306072D01*
X656593Y303533D01*
X661672D01*
X664211Y306072D01*
X679446Y318768D02*
X674368Y316228D01*
X669289Y311150D01*
Y306072D01*
X671828Y303533D01*
X676907D01*
X679446Y306072D01*
Y308611D01*
X676907Y311150D01*
X669289D01*
X767467Y472785D02*
X764928Y475324D01*
X759849D01*
X757310Y472785D01*
Y462628D01*
X759849Y460089D01*
X764928D01*
X767467Y462628D01*
X782702Y475324D02*
X772545D01*
Y467706D01*
X777624Y470245D01*
X780163D01*
X782702Y467706D01*
Y462628D01*
X780163Y460089D01*
X775084D01*
X772545Y462628D01*
X767081Y314958D02*
X764542Y317498D01*
X759463D01*
X756924Y314958D01*
Y304802D01*
X759463Y302262D01*
X764542D01*
X767081Y304802D01*
X779777Y302262D02*
Y317498D01*
X772159Y309880D01*
X782316D01*
X763775Y519774D02*
X761236Y522313D01*
X756157D01*
X753618Y519774D01*
Y509618D01*
X756157Y507078D01*
X761236D01*
X763775Y509618D01*
X768853Y519774D02*
X771392Y522313D01*
X776471D01*
X779010Y519774D01*
Y517235D01*
X776471Y514696D01*
X773932D01*
X776471D01*
X779010Y512157D01*
Y509618D01*
X776471Y507078D01*
X771392D01*
X768853Y509618D01*
X668019Y568034D02*
X665480Y570574D01*
X660402D01*
X657863Y568034D01*
Y557878D01*
X660402Y555338D01*
X665480D01*
X668019Y557878D01*
X683254Y555338D02*
X673098D01*
X683254Y565495D01*
Y568034D01*
X680715Y570574D01*
X675637D01*
X673098Y568034D01*
X521086Y823304D02*
X518547Y825844D01*
X513469D01*
X510929Y823304D01*
Y813148D01*
X513469Y810608D01*
X518547D01*
X521086Y813148D01*
X526165Y810608D02*
X531243D01*
X528704D01*
Y825844D01*
X526165Y823304D01*
D11*
X256520Y779630D02*
G03*
X256520Y779630I-1250J0D01*
G01*
X777220Y664360D02*
G03*
X777220Y664360I-1250J0D01*
G01*
X775564Y752614D02*
G03*
X775564Y752614I-1250J0D01*
G01*
X285344Y207854D02*
G03*
X285344Y207854I-1250J0D01*
G01*
X148350Y397440D02*
G03*
X148350Y397440I-1250J0D01*
G01*
D12*
X623620Y147476D02*
G03*
X622620Y147476I-500J1876D01*
G01*
D13*
X735574Y595604D02*
Y742924D01*
X203454Y586194D02*
Y742924D01*
X133726Y202854D02*
Y280578D01*
X72004Y202854D02*
X133726D01*
X72004Y224889D02*
Y265402D01*
Y280578D02*
X133726D01*
X72004Y202854D02*
Y224889D01*
Y265402D02*
Y280578D01*
X73074Y421924D02*
X119974D01*
X73074Y316524D02*
Y421924D01*
Y316524D02*
X105024D01*
X129032Y455930D02*
Y533655D01*
X67310Y455930D02*
X129032D01*
X67310Y477965D02*
Y518478D01*
Y533655D02*
X129032D01*
X67310Y455930D02*
Y477965D01*
Y518478D02*
Y533655D01*
X130302Y574040D02*
Y651765D01*
X68580Y574040D02*
X130302D01*
X68580Y596075D02*
Y636588D01*
Y651765D02*
X130302D01*
X68580Y574040D02*
Y596075D01*
Y636588D02*
Y651765D01*
X724662Y330962D02*
Y387351D01*
X644760Y330962D02*
X724662D01*
X644760D02*
Y374640D01*
X664735Y387459D02*
X704686D01*
X644760Y374640D02*
Y387351D01*
Y387459D02*
X664735D01*
X704686D02*
X724662D01*
X750667Y480979D02*
X783729D01*
X750667Y504541D02*
X783729D01*
X656912Y528469D02*
X685973D01*
X656912Y551031D02*
X685973D01*
X753089Y433989D02*
X786151D01*
X753089Y457551D02*
X786151D01*
X628590Y833120D02*
X632590D01*
X578990D02*
X582990D01*
X590790Y824570D02*
Y841671D01*
X582990Y823571D02*
Y842670D01*
Y823571D02*
X628590D01*
Y842670D01*
X582990D02*
X628590D01*
X788442Y687232D02*
Y700948D01*
X763138Y686978D02*
X788284D01*
X763138D02*
Y714410D01*
X788442D01*
Y700948D02*
Y714410D01*
X106838Y687579D02*
Y701294D01*
X81534Y687325D02*
X106680D01*
X81534D02*
Y714756D01*
X106838D01*
Y701294D02*
Y714756D01*
X417310Y841350D02*
X476560D01*
X417310Y847750D02*
X476560D01*
Y841350D02*
Y847750D01*
X417310Y815950D02*
X476560D01*
X417310Y822350D02*
X476560D01*
Y815950D02*
Y822350D01*
X417310Y790550D02*
X476560D01*
X417310Y796950D02*
X476560D01*
Y790550D02*
Y796950D01*
X375810Y779550D02*
X417310D01*
Y858750D01*
X375810D02*
X417310D01*
X375810Y779550D02*
Y858750D01*
X242820Y862330D02*
X267720D01*
X242820Y786130D02*
X267720D01*
Y862330D01*
X242820Y786130D02*
Y862330D01*
X623414Y524684D02*
Y551584D01*
X493414D02*
X623414D01*
X493414Y524684D02*
Y551584D01*
Y524684D02*
X623414D01*
X763520Y581660D02*
X788420D01*
X763520Y657860D02*
X788420D01*
X763520Y581660D02*
Y657860D01*
X788420Y581660D02*
Y657860D01*
X368954Y529764D02*
Y556664D01*
Y529764D02*
X422754D01*
Y556664D01*
X368954D02*
X422754D01*
X761864Y835314D02*
X786764D01*
X761864Y759114D02*
X786764D01*
Y835314D01*
X761864Y759114D02*
Y835314D01*
X665324Y781224D02*
Y808124D01*
X560724D02*
X665324D01*
X560724Y781224D02*
Y808124D01*
Y781224D02*
X665324D01*
X703559Y808640D02*
X736621D01*
X703559Y832202D02*
X736621D01*
X505557Y781969D02*
X538619D01*
X505557Y805531D02*
X538619D01*
X260120Y127520D02*
Y154420D01*
X181380D02*
X235180D01*
X181380Y127520D02*
Y154420D01*
Y127520D02*
X235180D01*
Y154420D02*
X260120D01*
X235180Y127520D02*
X260120D01*
X356870Y34798D02*
X434594D01*
X356870D02*
Y96520D01*
X378904D02*
X419417D01*
X434594Y34798D02*
Y96520D01*
X356870D02*
X378904D01*
X419417D02*
X434594D01*
X307624Y174884D02*
X359624D01*
X307624D02*
Y202884D01*
X359624D01*
Y174884D02*
Y202884D01*
Y188884D02*
X366274D01*
X300974D02*
X307624D01*
X346624Y175584D02*
Y202184D01*
X298680Y124980D02*
Y151880D01*
X323620Y124980D02*
X377420D01*
Y151880D01*
X323620D02*
X377420D01*
X298680Y124980D02*
X323620D01*
X298680Y151880D02*
X323620D01*
X148590Y36068D02*
X226314D01*
X148590D02*
Y97790D01*
X170625D02*
X211138D01*
X226314Y36068D02*
Y97790D01*
X148590D02*
X170625D01*
X211138D02*
X226314D01*
X71628Y100076D02*
Y177800D01*
X133350D01*
Y115253D02*
Y155765D01*
X71628Y100076D02*
X133350D01*
Y155765D02*
Y177800D01*
Y100076D02*
Y115253D01*
X255270Y36068D02*
X332994D01*
X255270D02*
Y97790D01*
X277304D02*
X317817D01*
X332994Y36068D02*
Y97790D01*
X255270D02*
X277304D01*
X317817D02*
X332994D01*
X500416Y119250D02*
Y157290D01*
X517616D01*
Y119250D02*
Y157290D01*
X500416Y119250D02*
X517616D01*
X500416Y127850D02*
X509016Y119250D01*
Y94020D02*
Y119250D01*
X509270Y157414D02*
Y177734D01*
X705830Y177760D02*
X720530D01*
X705830Y71160D02*
Y177760D01*
Y71160D02*
X720530D01*
X272594Y228854D02*
Y303854D01*
X394444Y228854D02*
X422594D01*
X369044D02*
X376944D01*
X343644D02*
X351544D01*
X292844D02*
X326144D01*
X272594D02*
X275344D01*
X422594D02*
Y303854D01*
X394444D02*
X422594D01*
X369044D02*
X376944D01*
X343644D02*
X351544D01*
X292844D02*
X326144D01*
X272594D02*
X275344D01*
X167774Y284122D02*
X173094D01*
X155934Y271123D02*
Y274353D01*
X177274Y271123D02*
X184934D01*
X155934D02*
X163594D01*
X184934D02*
Y274353D01*
X149860Y515420D02*
X209804D01*
X208382D02*
X251460D01*
Y465420D02*
Y515420D01*
X149860Y465420D02*
X251460D01*
X149860D02*
Y515420D01*
X248404Y398843D02*
Y402073D01*
X219404Y398843D02*
X227064D01*
X240744D02*
X248404D01*
X219404D02*
Y402073D01*
X231244Y411842D02*
X236564D01*
X487838Y371095D02*
Y384557D01*
X462534D02*
X487838D01*
X462534Y357124D02*
Y384557D01*
Y357124D02*
X487680D01*
X487838Y357379D02*
Y371095D01*
X319554Y366373D02*
Y369603D01*
X290554Y366373D02*
X298214D01*
X311894D02*
X319554D01*
X290554D02*
Y369603D01*
X302394Y379372D02*
X307714D01*
X150100Y406940D02*
Y415941D01*
X158100D01*
X180100Y406940D02*
Y415941D01*
X172100D02*
X180100D01*
X659109Y502001D02*
X692171D01*
X659109Y478439D02*
X692171D01*
X397607Y383891D02*
X430669D01*
X397607Y360329D02*
X430669D01*
X332512Y543468D02*
Y556930D01*
X307208D02*
X332512D01*
X307208Y529498D02*
Y556930D01*
Y529498D02*
X332354D01*
X332512Y529752D02*
Y543468D01*
X537210Y280671D02*
X608330D01*
X527930Y382271D02*
X608330D01*
X660379Y456281D02*
X693441D01*
X660379Y432719D02*
X693441D01*
X393561Y427639D02*
X426623D01*
X393561Y451201D02*
X426623D01*
X470942Y539658D02*
Y553120D01*
X445638D02*
X470942D01*
X445638Y525688D02*
Y553120D01*
Y525688D02*
X470784D01*
X470942Y525942D02*
Y539658D01*
X505321Y839119D02*
X538383D01*
X505321Y862681D02*
X538383D01*
X315224Y905704D02*
Y973204D01*
X580624Y905704D02*
Y984034D01*
X162209Y923387D02*
Y956449D01*
X185771Y923387D02*
Y956449D01*
X162209Y868659D02*
Y901721D01*
X185771Y868659D02*
Y901721D01*
X163479Y808970D02*
Y842031D01*
X187041Y808970D02*
Y842031D01*
D14*
X795020Y1033780D02*
Y1281430D01*
X90170Y1033780D02*
Y1281430D01*
Y1033780D02*
X795020D01*
X90170Y1281430D02*
X795020D01*
D15*
X697992Y763270D02*
Y783336D01*
Y763270D02*
X731774D01*
X732028Y763524D01*
Y783336D01*
X697992D02*
X732028D01*
X165100Y780288D02*
X185166D01*
X165100Y746507D02*
Y780288D01*
Y746507D02*
X165354Y746253D01*
X185166D01*
Y780288D01*
X83820Y784099D02*
X103886D01*
X83820Y750316D02*
Y784099D01*
Y750316D02*
X84074Y750062D01*
X103886D01*
Y784099D01*
X212462Y204470D02*
Y224536D01*
Y204470D02*
X246244D01*
X246498Y204724D01*
Y224536D01*
X212462D02*
X246498D01*
X456692Y227330D02*
Y247396D01*
Y227330D02*
X490474D01*
X490728Y227584D01*
Y247396D01*
X456692D02*
X490728D01*
X212852Y265431D02*
Y285497D01*
Y265431D02*
X246634D01*
X246888Y265685D01*
Y285497D01*
X212852D02*
X246888D01*
X456692Y283210D02*
Y303276D01*
Y283210D02*
X490474D01*
X490728Y283464D01*
Y303276D01*
X456692D02*
X490728D01*
X441960Y114300D02*
X468630D01*
X438150D02*
X441960D01*
X468630D02*
Y203200D01*
X438150Y114300D02*
Y203200D01*
X468630D01*
X219202Y346456D02*
X253238D01*
Y326645D02*
Y346456D01*
X252984Y326390D02*
X253238Y326645D01*
X219202Y326390D02*
X252984D01*
X219202D02*
Y346456D01*
X151892Y356617D02*
X185928D01*
Y336805D02*
Y356617D01*
X185674Y336550D02*
X185928Y336805D01*
X151892Y336550D02*
X185674D01*
X151892D02*
Y356617D01*
X323732Y500126D02*
X357768D01*
Y480314D02*
Y500126D01*
X357514Y480060D02*
X357768Y480314D01*
X323732Y480060D02*
X357514D01*
X323732D02*
Y500126D01*
X263262D02*
X297298D01*
Y480314D02*
Y500126D01*
X297044Y480060D02*
X297298Y480314D01*
X263262Y480060D02*
X297044D01*
X263262D02*
Y500126D01*
X521462Y479044D02*
X555498D01*
X521462D02*
Y498856D01*
X521716Y499110D01*
X555498D01*
Y479044D02*
Y499110D01*
X388112Y500126D02*
X422148D01*
Y480314D02*
Y500126D01*
X421894Y480060D02*
X422148Y480314D01*
X388112Y480060D02*
X421894D01*
X388112D02*
Y500126D01*
X455422Y480314D02*
X489458D01*
X455422D02*
Y500126D01*
X455676Y500380D01*
X489458D01*
Y480314D02*
Y500380D01*
X592582Y479044D02*
X626618D01*
X592582D02*
Y498856D01*
X592836Y499110D01*
X626618D01*
Y479044D02*
Y499110D01*
X594732Y453136D02*
X628768D01*
Y433324D02*
Y453136D01*
X628514Y433070D02*
X628768Y433324D01*
X594732Y433070D02*
X628514D01*
X594732D02*
Y453136D01*
X247142Y556007D02*
X281178D01*
Y536194D02*
Y556007D01*
X280924Y535941D02*
X281178Y536194D01*
X247142Y535941D02*
X280924D01*
X247142D02*
Y556007D01*
X522342Y450596D02*
X556378D01*
Y430784D02*
Y450596D01*
X556124Y430530D02*
X556378Y430784D01*
X522342Y430530D02*
X556124D01*
X522342D02*
Y450596D01*
X319922Y430784D02*
X353958D01*
X319922D02*
Y450596D01*
X320176Y450850D01*
X353958D01*
Y430784D02*
Y450850D01*
X455422Y430784D02*
X489458D01*
X455422D02*
Y450596D01*
X455676Y450850D01*
X489458D01*
Y430784D02*
Y450850D01*
X187062Y558546D02*
X221098D01*
Y538734D02*
Y558546D01*
X220844Y538480D02*
X221098Y538734D01*
X187062Y538480D02*
X220844D01*
X187062D02*
Y558546D01*
X341121Y379476D02*
X375158D01*
Y359664D02*
Y379476D01*
X374903Y359410D02*
X375158Y359664D01*
X341121Y359410D02*
X374903D01*
X341121D02*
Y379476D01*
X84074Y922783D02*
Y956818D01*
X103886D01*
X104140Y956564D01*
Y922783D02*
Y956564D01*
X84074Y922783D02*
X104140D01*
X84074Y864752D02*
Y898788D01*
X103886D01*
X104140Y898534D01*
Y864752D02*
Y898534D01*
X84074Y864752D02*
X104140D01*
X84074Y809362D02*
Y843398D01*
X103886D01*
X104140Y843144D01*
Y809362D02*
Y843144D01*
X84074Y809362D02*
X104140D01*
D16*
X316403Y783921D02*
X318096Y780535D01*
X321482Y777150D01*
X324867D01*
X326560Y778842D01*
Y782228D01*
X324867Y783921D01*
X323175D01*
X321482Y782228D01*
Y777150D01*
X353403Y783921D02*
Y777150D01*
X358482D01*
X356789Y780535D01*
Y782228D01*
X358482Y783921D01*
X361867D01*
X363560Y782228D01*
Y778842D01*
X361867Y777150D01*
X326560Y861921D02*
Y855150D01*
X319789Y861921D01*
X318096D01*
X316403Y860228D01*
Y856842D01*
X318096Y855150D01*
X363560D02*
Y858535D01*
Y856842D01*
X353403D01*
X355096Y855150D01*
X612185Y565290D02*
X605414D01*
Y560212D01*
X608800Y561905D01*
X610492D01*
X612185Y560212D01*
Y556827D01*
X610492Y555134D01*
X607107D01*
X605414Y556827D01*
X506414Y555134D02*
X509800D01*
X508107D01*
Y565290D01*
X506414Y563598D01*
M02*
