G04*
G04 #@! TF.GenerationSoftware,Altium Limited,Altium Designer,24.4.1 (13)*
G04*
G04 Layer_Physical_Order=1*
G04 Layer_Color=255*
%FSLAX44Y44*%
%MOMM*%
G71*
G04*
G04 #@! TF.SameCoordinates,F6539689-3043-445A-A8EF-E24C1B7FCDF9*
G04*
G04*
G04 #@! TF.FilePolarity,Positive*
G04*
G01*
G75*
%ADD18R,1.5046X1.5562*%
%ADD19R,1.3046X1.4562*%
%ADD25R,1.0000X2.2000*%
G04:AMPARAMS|DCode=26|XSize=1.8242mm|YSize=0.618mm|CornerRadius=0.309mm|HoleSize=0mm|Usage=FLASHONLY|Rotation=270.000|XOffset=0mm|YOffset=0mm|HoleType=Round|Shape=RoundedRectangle|*
%AMROUNDEDRECTD26*
21,1,1.8242,0.0000,0,0,270.0*
21,1,1.2063,0.6180,0,0,270.0*
1,1,0.6180,0.0000,-0.6031*
1,1,0.6180,0.0000,0.6031*
1,1,0.6180,0.0000,0.6031*
1,1,0.6180,0.0000,-0.6031*
%
%ADD26ROUNDEDRECTD26*%
%ADD27R,0.6180X1.8242*%
%ADD29R,1.5562X1.5046*%
%ADD37C,1.5240*%
%ADD38R,1.5240X1.5240*%
%ADD45R,1.5500X1.5500*%
%ADD46C,1.5500*%
%ADD53R,2.3000X5.0000*%
%ADD54R,1.2000X1.4500*%
%ADD55R,1.4500X1.2000*%
%ADD56R,2.5000X1.0000*%
%ADD57R,4.0000X1.5000*%
%ADD58R,8.6000X10.7000*%
%ADD59R,0.6000X1.0500*%
%ADD60C,0.6350*%
%ADD61C,1.3000*%
%ADD62R,1.3000X1.3000*%
%ADD63C,2.1000*%
%ADD64R,1.9200X1.9200*%
%ADD65C,1.9200*%
%ADD66C,1.7780*%
%ADD67C,1.8000*%
%ADD68R,1.5500X1.5500*%
%ADD69C,1.6000*%
G04:AMPARAMS|DCode=70|XSize=1.6mm|YSize=1.6mm|CornerRadius=0.4mm|HoleSize=0mm|Usage=FLASHONLY|Rotation=0.000|XOffset=0mm|YOffset=0mm|HoleType=Round|Shape=RoundedRectangle|*
%AMROUNDEDRECTD70*
21,1,1.6000,0.8000,0,0,0.0*
21,1,0.8000,1.6000,0,0,0.0*
1,1,0.8000,0.4000,-0.4000*
1,1,0.8000,-0.4000,-0.4000*
1,1,0.8000,-0.4000,0.4000*
1,1,0.8000,0.4000,0.4000*
%
%ADD70ROUNDEDRECTD70*%
%ADD71R,1.6000X1.6000*%
%ADD72O,1.5000X2.0000*%
%ADD73O,1.5240X2.0000*%
%ADD74C,1.5000*%
%ADD75C,1.4000*%
%ADD76C,4.8000*%
%ADD77C,1.2700*%
D18*
X758190Y492760D02*
D03*
X776206D02*
D03*
X760612Y445770D02*
D03*
X778628D02*
D03*
X711082Y820421D02*
D03*
X729098D02*
D03*
X513080Y793750D02*
D03*
X531096D02*
D03*
X684648Y490220D02*
D03*
X666632D02*
D03*
X423146Y372110D02*
D03*
X405130D02*
D03*
X685918Y444500D02*
D03*
X667902D02*
D03*
X401084Y439420D02*
D03*
X419100D02*
D03*
X512844Y850900D02*
D03*
X530860D02*
D03*
D19*
X663435Y539750D02*
D03*
X679450D02*
D03*
D25*
X284094Y306354D02*
D03*
X334894D02*
D03*
X360294D02*
D03*
X385694D02*
D03*
Y226354D02*
D03*
X360294D02*
D03*
X334894D02*
D03*
X284094D02*
D03*
D26*
X160934Y287224D02*
D03*
X170434Y268021D02*
D03*
X233904Y395741D02*
D03*
X224404Y414944D02*
D03*
X305054Y363271D02*
D03*
X295554Y382474D02*
D03*
D27*
X179934Y287224D02*
D03*
X243404Y414944D02*
D03*
X314554Y382474D02*
D03*
D29*
X173990Y948926D02*
D03*
Y930910D02*
D03*
Y894198D02*
D03*
Y876182D02*
D03*
X175260Y834508D02*
D03*
Y816493D02*
D03*
D37*
X579120Y1262380D02*
D03*
X553720D02*
D03*
X528320D02*
D03*
X502920D02*
D03*
X477520D02*
D03*
X452120D02*
D03*
X426720D02*
D03*
X401320D02*
D03*
X375920D02*
D03*
X350520D02*
D03*
X325120D02*
D03*
X299720D02*
D03*
X643920Y833120D02*
D03*
X246380Y140970D02*
D03*
X312420Y138430D02*
D03*
D38*
X567660Y833120D02*
D03*
D45*
X378024Y188884D02*
D03*
D46*
X255270Y849630D02*
D03*
Y824230D02*
D03*
X775970Y594360D02*
D03*
Y619760D02*
D03*
X774314Y822614D02*
D03*
Y797214D02*
D03*
X289224Y188884D02*
D03*
D53*
X707390Y359411D02*
D03*
X661670D02*
D03*
D54*
X723510Y773430D02*
D03*
X706510D02*
D03*
X237980Y214630D02*
D03*
X220980D02*
D03*
X482210Y237490D02*
D03*
X465210D02*
D03*
X238370Y275590D02*
D03*
X221370D02*
D03*
X482210Y293370D02*
D03*
X465210D02*
D03*
X227720Y336550D02*
D03*
X244720D02*
D03*
X160410Y346711D02*
D03*
X177410D02*
D03*
X332250Y490220D02*
D03*
X349250D02*
D03*
X271780D02*
D03*
X288780D02*
D03*
X546980Y488950D02*
D03*
X529980D02*
D03*
X396630Y490220D02*
D03*
X413630D02*
D03*
X480940D02*
D03*
X463940D02*
D03*
X618100Y488950D02*
D03*
X601100D02*
D03*
X603250Y443230D02*
D03*
X620250D02*
D03*
X255660Y546101D02*
D03*
X272660D02*
D03*
X530860Y440690D02*
D03*
X547860D02*
D03*
X345440D02*
D03*
X328440D02*
D03*
X480940D02*
D03*
X463940D02*
D03*
X195580Y548640D02*
D03*
X212580D02*
D03*
X349640Y369570D02*
D03*
X366639D02*
D03*
D55*
X175260Y754771D02*
D03*
Y771770D02*
D03*
X93980Y758581D02*
D03*
Y775580D02*
D03*
Y931301D02*
D03*
Y948300D02*
D03*
Y873270D02*
D03*
Y890270D02*
D03*
Y817880D02*
D03*
Y834880D02*
D03*
D56*
X359360Y844550D02*
D03*
X322360D02*
D03*
X359360Y819150D02*
D03*
X322360D02*
D03*
X359360Y793750D02*
D03*
X322360D02*
D03*
D57*
X661080Y149860D02*
D03*
Y124460D02*
D03*
Y99060D02*
D03*
D58*
X767080Y124460D02*
D03*
D59*
X155600Y397440D02*
D03*
X174600D02*
D03*
X165100Y420441D02*
D03*
D60*
X155775Y373815D02*
Y397265D01*
Y373815D02*
X156210Y373380D01*
X155600Y397440D02*
X155775Y397265D01*
X155600Y397440D02*
Y408432D01*
X305054Y357410D02*
Y363271D01*
X311999Y350465D02*
X322635D01*
X305054Y357410D02*
X311999Y350465D01*
X322635D02*
X323850Y349250D01*
X360294Y288036D02*
X361950D01*
X330200Y335788D02*
X349640Y355228D01*
X360294Y288036D02*
Y289692D01*
X302666Y335788D02*
X330200D01*
X553720Y293370D02*
X597535Y249555D01*
Y214503D02*
Y249555D01*
Y214503D02*
X635254Y176784D01*
X435102Y391414D02*
X520700Y305816D01*
X560439D01*
X572885Y293370D01*
X666632Y490220D02*
X666691Y490279D01*
Y516831D01*
X666750Y516890D01*
X711082Y811902D02*
Y820421D01*
Y799084D02*
Y811902D01*
X698500Y773430D02*
X706510D01*
X672367D02*
X698500D01*
Y734060D02*
Y773430D01*
X468757Y855467D02*
X488818Y835406D01*
X460624Y863600D02*
X468757Y855467D01*
X658114Y199644D02*
Y238760D01*
X623062Y99060D02*
X635254D01*
X321310Y844550D02*
Y927100D01*
Y844550D02*
X322360D01*
X304038D02*
X321310D01*
X711160Y847598D02*
X729098Y829660D01*
X643036Y609092D02*
X660014D01*
X628650D02*
X643036D01*
X660014Y592114D01*
X564550Y687578D02*
X643036Y609092D01*
X778628Y271898D02*
Y432054D01*
X769620Y256540D02*
X784352D01*
Y124460D02*
Y256540D01*
X686816Y124460D02*
X767080D01*
X623062Y488950D02*
Y546608D01*
X509270Y268920D02*
Y287664D01*
X431414Y712602D02*
Y746414D01*
Y699516D02*
Y712602D01*
X335026Y783413D02*
Y793750D01*
X80772Y611632D02*
X81534Y612394D01*
X165100Y425450D02*
X174498D01*
X349640Y355228D02*
Y369570D01*
Y343140D02*
Y355228D01*
X361950Y288036D02*
X419100D01*
X361950D02*
X368300Y281686D01*
X360294Y289692D02*
X361950Y288036D01*
X165100Y425450D02*
Y445262D01*
X101346Y296926D02*
X160934D01*
X251079Y201168D02*
Y238497D01*
Y180213D02*
Y201168D01*
X156074Y834508D02*
X175260D01*
X134737D02*
X156074D01*
X419100Y448181D02*
X444989D01*
X415036Y237490D02*
X453390D01*
X665734Y149860D02*
Y183134D01*
X385694Y306578D02*
X415544D01*
X482210Y247650D02*
Y278638D01*
Y237490D02*
Y247650D01*
Y284616D02*
Y293370D01*
Y278638D02*
Y284616D01*
X359156Y773176D02*
Y793750D01*
X266700Y752348D02*
X273304Y758952D01*
X706510Y773430D02*
X711082Y799084D01*
X488818Y835406D02*
X530860D01*
Y850900D01*
X456814Y746414D02*
X468757Y758357D01*
Y855467D01*
X460624Y863600D02*
Y900534D01*
X530860Y850900D02*
X549880D01*
X567660Y833120D01*
X272660Y546101D02*
X283800D01*
X329814Y592114D01*
X304038Y770636D02*
Y844550D01*
Y770636D02*
X317246Y757428D01*
Y604682D02*
Y757428D01*
Y604682D02*
X329814Y592114D01*
X295148Y953262D02*
X321310Y927100D01*
X250951Y953262D02*
X295148D01*
X236220Y938531D02*
X250951Y953262D01*
X173990Y930910D02*
X228599D01*
X236220Y938531D01*
X758190Y471814D02*
Y492760D01*
Y471814D02*
X760612Y445770D01*
X284094Y206624D02*
Y226354D01*
X267970Y190500D02*
X284094Y206624D01*
X267970Y190500D02*
X283210Y175260D01*
X364400D01*
X378024Y188884D01*
X582930Y100330D02*
X623062Y99060D01*
X261620Y855980D02*
Y938531D01*
X255270Y849630D02*
X261620Y855980D01*
X431414Y699516D02*
X443352Y687578D01*
X564550D01*
X769620Y262890D02*
X778628Y271898D01*
X509270Y189230D02*
Y268920D01*
X533720Y293370D01*
X465210Y293370D02*
Y304800D01*
X471560Y311150D01*
X485784D01*
X509270Y287664D01*
X355214Y533400D02*
Y592114D01*
X342382Y520568D02*
X355214Y533400D01*
X308224Y520568D02*
X342382D01*
X288780Y501124D02*
X308224Y520568D01*
X288780Y490220D02*
Y501124D01*
X349640Y343140D02*
X360294Y332486D01*
Y306354D02*
Y332486D01*
X288780Y437228D02*
Y490220D01*
Y437228D02*
X295554Y430454D01*
Y382474D02*
Y430454D01*
X513080Y775594D02*
Y793750D01*
X507614Y746414D02*
X513080Y775594D01*
X359360Y819150D02*
X377698D01*
Y804672D02*
Y819150D01*
Y804672D02*
X393700Y788670D01*
X437823D01*
X443738Y782755D01*
Y734954D02*
Y782755D01*
Y734954D02*
X457200Y721492D01*
X504830D01*
X519938Y736600D01*
Y754380D01*
X531096Y765538D01*
Y793750D01*
X634614Y552836D02*
X653288Y539750D01*
X634614Y552836D02*
Y592114D01*
X93980Y834880D02*
X134737Y834508D01*
X173990Y894198D02*
X184794D01*
X215392Y863600D01*
Y784636D02*
Y863600D01*
Y784636D02*
X253614Y746414D01*
X137786Y894198D02*
X173990D01*
X93980Y890270D02*
X137786Y894198D01*
X463940Y440690D02*
Y458978D01*
X451104Y471814D02*
X463940Y458978D01*
X451104Y471814D02*
Y532424D01*
X458084Y539404D01*
X453390Y237490D02*
X465210D01*
X453390Y184150D02*
Y237490D01*
X212580Y539750D02*
Y548640D01*
X206230Y533400D02*
X212580Y539750D01*
X160021Y533400D02*
X206230D01*
X99060Y594361D02*
X160021Y533400D01*
X284094Y261371D02*
Y306354D01*
Y261371D02*
X294894Y250571D01*
Y194554D02*
Y250571D01*
X289224Y188884D02*
X294894Y194554D01*
X422928Y888238D02*
X435224Y900534D01*
X372110Y888238D02*
X422928D01*
X371602Y1190498D02*
X372110Y888238D01*
X299720Y1262380D02*
X371602Y1190498D01*
X401320Y1236726D02*
Y1262380D01*
Y1236726D02*
X422148Y1215898D01*
Y951894D02*
Y1215898D01*
Y951894D02*
X428146Y945896D01*
X460624Y978374D01*
X452120Y995270D02*
Y1262380D01*
X435224Y978374D02*
X452120Y995270D01*
X536824Y978374D02*
Y1245484D01*
X553720Y1262380D01*
X561086Y1280414D02*
X579120Y1262380D01*
X296672Y1280414D02*
X561086D01*
X286258Y1270000D02*
X296672Y1280414D01*
X286258Y1005332D02*
Y1270000D01*
Y1005332D02*
X359024Y932566D01*
Y900534D02*
Y932566D01*
X317500Y496570D02*
Y504698D01*
Y496570D02*
X323850Y490220D01*
X332250D01*
X465700Y264160D02*
X482210Y247650D01*
X337566Y264160D02*
X465700D01*
X322326Y279400D02*
X337566Y264160D01*
X322326Y279400D02*
Y303022D01*
X295910D02*
X322326D01*
X295910Y280416D02*
Y303022D01*
Y280416D02*
X303784Y272542D01*
Y223266D02*
Y272542D01*
Y223266D02*
X317500Y209550D01*
X371094D01*
Y239268D01*
X374904Y243078D01*
X396494D01*
Y215646D02*
Y243078D01*
Y215646D02*
X509270Y102870D01*
Y82230D02*
Y102870D01*
X482210Y284616D02*
X488188Y278638D01*
X237980Y214630D02*
Y228817D01*
X239014Y229852D01*
X600324Y794674D02*
X634614Y760384D01*
Y746414D02*
Y760384D01*
X359360Y844550D02*
X389128D01*
X391160Y846582D01*
X410210D01*
X456692Y800100D01*
Y787146D02*
Y800100D01*
X533014Y746414D02*
X561209Y774609D01*
Y808389D01*
X654973D01*
X657352Y810768D01*
Y848868D01*
X594360Y911860D02*
X657352Y848868D01*
X594360Y911860D02*
Y977900D01*
X581660Y990600D02*
X594360Y977900D01*
X549910Y990600D02*
X581660D01*
X549910Y970280D02*
Y990600D01*
X494792Y915162D02*
X549910Y970280D01*
X454914Y915162D02*
X494792D01*
X447802Y908050D02*
X454914Y915162D01*
X447802Y887730D02*
Y908050D01*
X417322Y857250D02*
X447802Y887730D01*
X340614Y857250D02*
X417322D01*
X340614Y819150D02*
Y857250D01*
X322360Y819150D02*
X340614D01*
X281686Y891286D02*
X307340Y916940D01*
X281686Y786638D02*
Y891286D01*
X266700Y771652D02*
X281686Y786638D01*
X266700Y752348D02*
Y771652D01*
X265938Y751586D02*
X266700Y752348D01*
X260350Y734060D02*
X265938Y739648D01*
X329814Y746414D02*
X401096Y675132D01*
X530860Y407990D02*
Y440690D01*
Y407990D02*
X533720Y369571D01*
X529980Y469256D02*
Y488950D01*
X314554Y382474D02*
Y457810D01*
X330200Y473456D01*
X342900D01*
X349250Y479806D01*
Y490220D01*
X192104Y414944D02*
X224404D01*
X174600Y397440D02*
X192104Y414944D01*
X191568Y275590D02*
X221370D01*
X179934Y287224D02*
X191568Y275590D01*
X620250Y432934D02*
Y443230D01*
X617338Y430022D02*
X620250Y432934D01*
X577850Y430022D02*
X617338D01*
X567182Y440690D02*
X577850Y430022D01*
X547860Y440690D02*
X567182D01*
X601100Y474590D02*
Y488950D01*
Y474590D02*
X609600Y466090D01*
X639851D01*
X640855Y465086D01*
Y347806D02*
Y465086D01*
X611820Y318771D02*
X640855Y347806D01*
X533720Y344170D02*
X546876D01*
X631965Y429260D01*
Y456196D01*
X603250D02*
X631965D01*
X603250Y443230D02*
Y456196D01*
X308102Y290830D02*
X313294Y285638D01*
Y260238D02*
Y285638D01*
Y260238D02*
X321573Y251959D01*
X349635D01*
X360294Y241300D01*
Y226354D02*
Y241300D01*
X385694Y306354D02*
Y306578D01*
X661080Y149860D02*
X665734D01*
X173990Y948926D02*
Y1264920D01*
X203200Y1294130D01*
X635000D01*
X668034Y1261096D01*
Y1010724D02*
Y1261096D01*
X93980Y873270D02*
X106698D01*
X109610Y876182D01*
X173990D01*
X81534Y758581D02*
X93980D01*
X81534Y688668D02*
Y758581D01*
Y688668D02*
X97610Y672592D01*
X236220D01*
X291846Y728218D01*
X147066Y825500D02*
X156074Y834508D01*
X147066Y752348D02*
Y825500D01*
Y752348D02*
X177800Y721614D01*
X260476D01*
X279014Y740151D01*
Y746414D01*
X660014Y592114D02*
Y609092D01*
X622300Y602742D02*
X628650Y609092D01*
X622300Y547370D02*
Y602742D01*
Y547370D02*
X623062Y546608D01*
X618100Y488950D02*
X623062D01*
X513080Y793750D02*
Y809659D01*
X520700Y817279D01*
X628078D01*
X643920Y833120D01*
X570738Y790488D02*
X574924Y794674D01*
X570738Y736600D02*
Y790488D01*
X533654Y699516D02*
X570738Y736600D01*
X444500Y699516D02*
X533654D01*
X431414Y712602D02*
X444500Y699516D01*
X661080Y124460D02*
X686816D01*
Y85090D02*
Y124460D01*
X593090Y85090D02*
X686816D01*
X582930Y74930D02*
X593090Y85090D01*
X774314Y771814D02*
X787908Y785408D01*
Y844296D01*
X784606Y847598D02*
X787908Y844296D01*
X711160Y847598D02*
X784606D01*
X693034Y865724D02*
X711160Y847598D01*
X758190Y492760D02*
Y528574D01*
X743204Y543560D02*
X758190Y528574D01*
X743204Y543560D02*
Y689356D01*
X698500Y734060D02*
X743204Y689356D01*
X572885Y293370D02*
X611820D01*
X412750Y391414D02*
X435102D01*
X405130Y383794D02*
X412750Y391414D01*
X405130Y372110D02*
Y383794D01*
X533720Y318771D02*
X562864D01*
X575818Y305816D01*
X660400D01*
X678942Y324358D01*
Y410600D01*
X667902Y421640D02*
X678942Y410600D01*
X667902Y421640D02*
Y444500D01*
X328440Y427482D02*
Y440690D01*
Y427482D02*
X340868D01*
X356108Y412242D01*
X452480Y440690D02*
X463940D01*
X444989Y448181D02*
X452480Y440690D01*
X419100Y439420D02*
Y448181D01*
X401084Y425704D02*
Y439420D01*
Y425704D02*
X430022D01*
X432816Y422910D01*
X246380Y140970D02*
Y175514D01*
X251079Y180213D01*
X160934Y228600D02*
Y287224D01*
Y228600D02*
X188366Y201168D01*
X251079D01*
X238370Y251206D02*
X251079Y238497D01*
X238370Y251206D02*
Y275590D01*
X170434Y254000D02*
Y268021D01*
Y254000D02*
X181292Y243142D01*
X419100Y288036D02*
X427736Y296672D01*
Y333248D01*
X423146Y337838D02*
X427736Y333248D01*
X423146Y337838D02*
Y372110D01*
X463940Y490220D02*
Y501142D01*
X470408Y507610D01*
Y563880D01*
X469392Y564896D02*
X470408Y563880D01*
X469392Y564896D02*
Y596900D01*
X460420Y605872D02*
X469392Y596900D01*
X445172Y605872D02*
X460420D01*
X431414Y592114D02*
X445172Y605872D01*
X304414Y705734D02*
Y746414D01*
X258064Y659384D02*
X304414Y705734D01*
X85598Y659384D02*
X258064D01*
X71882Y673100D02*
X85598Y659384D01*
X71882Y673100D02*
Y939800D01*
X80382Y948300D01*
X93980D01*
X396630Y490220D02*
Y500008D01*
X422402Y525780D01*
Y574294D01*
X418846Y577850D02*
X422402Y574294D01*
X418846Y577850D02*
Y604520D01*
X414782Y608584D02*
X418846Y604520D01*
X174600Y373396D02*
Y397440D01*
Y373396D02*
X177410Y370586D01*
Y346711D02*
Y370586D01*
X295554Y342900D02*
X302666Y335788D01*
X295554Y342900D02*
Y382474D01*
X175260Y742950D02*
Y754771D01*
Y742950D02*
X184150Y734060D01*
X260350D01*
X265938Y739648D02*
Y751586D01*
X273304Y758952D02*
X291846D01*
X361950Y770382D02*
X430784D01*
X359156Y773176D02*
X361950Y770382D01*
X359156Y793750D02*
X359360D01*
X322360D02*
X335026D01*
Y783413D02*
X357201Y761238D01*
X416590D01*
X431414Y746414D01*
X272660Y530978D02*
Y546101D01*
X259941Y518259D02*
X272660Y530978D01*
X259941Y271549D02*
Y518259D01*
Y271549D02*
X284094Y247396D01*
Y226354D02*
Y247396D01*
X349250Y490220D02*
Y501904D01*
X367538Y520192D01*
Y606806D01*
X349250D02*
X367538D01*
X342392Y599948D02*
X349250Y606806D01*
X342392Y546100D02*
Y599948D01*
X327152Y530860D02*
X342392Y546100D01*
X285242Y530860D02*
X327152D01*
X271780Y517398D02*
X285242Y530860D01*
X271780Y490220D02*
Y517398D01*
X345440Y440690D02*
Y456946D01*
X378714Y490220D01*
X396630D01*
X160934Y287224D02*
Y296926D01*
X80772Y317500D02*
X101346Y296926D01*
X80772Y317500D02*
Y611632D01*
X155600Y408432D02*
X172792D01*
X196160Y431800D01*
X228672D01*
X243404Y417068D01*
Y414944D02*
Y417068D01*
X116332Y494030D02*
X165100Y445262D01*
X88900Y494030D02*
X116332D01*
X81534Y501396D02*
X88900Y494030D01*
X81534Y501396D02*
Y612394D01*
X99060Y629921D01*
X366639Y350266D02*
Y369570D01*
X413630Y476758D02*
Y490220D01*
X387604Y450732D02*
X413630Y476758D01*
X387604Y381000D02*
Y450732D01*
Y381000D02*
X396494Y372110D01*
X405130D01*
X385694Y209936D02*
Y226354D01*
Y209936D02*
X391668Y203962D01*
Y117602D02*
Y203962D01*
X316992Y42926D02*
X391668Y117602D01*
X125476Y42926D02*
X316992D01*
X86614Y81788D02*
X125476Y42926D01*
X86614Y81788D02*
Y207304D01*
X102484Y223174D01*
X203962Y336550D02*
X227720D01*
X182626Y315214D02*
X203962Y336550D01*
X104648Y315214D02*
X182626D01*
X89662Y330200D02*
X104648Y315214D01*
X89662Y330200D02*
Y379262D01*
X105024Y394624D01*
X679450Y520056D02*
Y539750D01*
Y520056D02*
X684648Y514858D01*
Y490220D02*
Y514858D01*
X524510Y171450D02*
X582930Y229870D01*
X506730Y171450D02*
X524510D01*
X465210Y212970D02*
X506730Y171450D01*
X465210Y212970D02*
Y237490D01*
X173990Y864870D02*
Y876182D01*
Y864870D02*
X188976Y849884D01*
Y816493D02*
Y849884D01*
X175260Y816493D02*
X188976D01*
X180340Y548640D02*
X195580D01*
X99060Y629921D02*
X180340Y548640D01*
X729098Y820421D02*
Y829660D01*
X165100Y420441D02*
Y425450D01*
X174498D02*
X227838Y478790D01*
X240030D01*
X363220Y119380D02*
Y138430D01*
X311150Y67310D02*
X363220Y119380D01*
X660014Y746414D02*
Y760384D01*
X625724Y794674D02*
X660014Y760384D01*
X168910Y88900D02*
X220980Y140970D01*
X168910Y67310D02*
Y88900D01*
X453390Y106680D02*
Y133350D01*
X412750Y66040D02*
X453390Y106680D01*
X723510Y773430D02*
X750530D01*
X774314Y797214D01*
X246380Y96520D02*
Y140970D01*
Y96520D02*
X275590Y67310D01*
X562224Y957194D02*
Y978374D01*
X549402Y944372D02*
X562224Y957194D01*
X549402Y889000D02*
Y944372D01*
X526560Y866158D02*
X549402Y889000D01*
X512844Y866158D02*
X526560D01*
X512844Y850900D02*
Y866158D01*
X651124Y794674D02*
X672367Y773430D01*
X660014Y592114D02*
X679450Y572678D01*
Y539750D02*
Y572678D01*
X707390Y280670D02*
Y359411D01*
X665480Y238760D02*
X707390Y280670D01*
X693034Y985724D02*
X718034Y1010724D01*
X693034Y865724D02*
Y985724D01*
X350520Y1262380D02*
X397256Y1215644D01*
Y913102D02*
Y1215644D01*
Y913102D02*
X409824Y900534D01*
X221370Y250522D02*
Y275590D01*
X220980Y250132D02*
X221370Y250522D01*
X220980Y214630D02*
Y250132D01*
X465210Y281686D02*
Y293370D01*
X368300Y281686D02*
X465210D01*
X360294Y289692D02*
Y306354D01*
Y241300D02*
X374010Y255016D01*
X397510D01*
X415036Y237490D01*
X757134Y805434D02*
X774314Y822614D01*
X717550Y805434D02*
X757134D01*
X711082Y811902D02*
X717550Y805434D01*
X658114Y238760D02*
X665480D01*
X635254Y176784D02*
X658114Y199644D01*
X635254Y99060D02*
Y176784D01*
Y99060D02*
X661080D01*
X769620Y256540D02*
Y262890D01*
X767080Y124460D02*
X784352D01*
X685918Y444500D02*
X722630D01*
X735076Y432054D01*
X778628D01*
Y445770D01*
X609214Y538134D02*
Y592114D01*
X653288Y539750D02*
X663435D01*
X653288Y397510D02*
Y539750D01*
Y397510D02*
X661670Y389128D01*
Y359411D02*
Y389128D01*
X776206Y492760D02*
Y538226D01*
X762254Y552178D02*
X776206Y538226D01*
X762254Y552178D02*
Y687364D01*
X775584Y700694D01*
X568198Y89662D02*
X582930Y74930D01*
X568198Y89662D02*
Y189738D01*
X582930Y204470D01*
X80772Y931301D02*
X93980D01*
X80772Y873270D02*
Y931301D01*
Y873270D02*
X93980D01*
X80772Y817880D02*
Y873270D01*
Y817880D02*
X93980D01*
Y775580D02*
Y817880D01*
X175260Y771770D02*
Y816493D01*
X133995Y930910D02*
X173990D01*
X133604Y931301D02*
X133995Y930910D01*
X93980Y931301D02*
X133604D01*
X774314Y736854D02*
Y771814D01*
Y736854D02*
X775584Y735584D01*
Y700694D02*
Y735584D01*
X684648Y467868D02*
Y490220D01*
Y467868D02*
X685918Y466598D01*
Y444500D02*
Y466598D01*
X776206Y470290D02*
Y492760D01*
Y470290D02*
X778628Y467868D01*
Y445770D02*
Y467868D01*
X134229Y948926D02*
X173990D01*
X133604Y948300D02*
X134229Y948926D01*
X93980Y948300D02*
X133604D01*
X456814Y566166D02*
Y592114D01*
Y566166D02*
X458084Y564896D01*
Y539404D02*
Y564896D01*
X233904Y369150D02*
Y395741D01*
X227720Y362966D02*
X233904Y369150D01*
X227720Y336550D02*
Y362966D01*
X235203Y546101D02*
X255660D01*
X232664Y548640D02*
X235203Y546101D01*
X212580Y548640D02*
X232664D01*
X380614Y568706D02*
Y592114D01*
Y568706D02*
X383154Y566166D01*
Y543214D02*
Y566166D01*
X406014Y568706D02*
Y592114D01*
Y568706D02*
X408554Y566166D01*
Y543214D02*
Y566166D01*
X507614Y538134D02*
Y592114D01*
X533014Y538134D02*
Y592114D01*
X558414Y538134D02*
Y592114D01*
X583814Y538134D02*
Y592114D01*
X480940Y440690D02*
X530860D01*
X546980Y488950D02*
X601100D01*
X505968D02*
X529980D01*
X504698Y490220D02*
X505968Y488950D01*
X480940Y490220D02*
X504698D01*
X243404Y376220D02*
Y414944D01*
Y376220D02*
X244720Y374904D01*
Y336550D02*
Y374904D01*
X133951Y346711D02*
X160410D01*
X131064Y343824D02*
X133951Y346711D01*
X105024Y343824D02*
X131064D01*
D61*
X228214Y746414D02*
D03*
X253614D02*
D03*
X279014D02*
D03*
X304414D02*
D03*
X329814D02*
D03*
X355214D02*
D03*
X380614D02*
D03*
X406014D02*
D03*
X431414D02*
D03*
X456814D02*
D03*
X482214D02*
D03*
X507614D02*
D03*
X533014D02*
D03*
X558414D02*
D03*
X583814D02*
D03*
X609214D02*
D03*
X634614D02*
D03*
X660014D02*
D03*
X685414D02*
D03*
X710814D02*
D03*
Y592114D02*
D03*
X685414D02*
D03*
X660014D02*
D03*
X634614D02*
D03*
X609214D02*
D03*
X583814D02*
D03*
X558414D02*
D03*
X533014D02*
D03*
X507614D02*
D03*
X482214D02*
D03*
X456814D02*
D03*
X431414D02*
D03*
X406014D02*
D03*
X380614D02*
D03*
X355214D02*
D03*
X329814D02*
D03*
X304414D02*
D03*
X279014D02*
D03*
X253614D02*
D03*
X775584Y700694D02*
D03*
X93980Y701040D02*
D03*
X474980Y370840D02*
D03*
X319654Y543214D02*
D03*
X611820Y369571D02*
D03*
Y344170D02*
D03*
Y318771D02*
D03*
Y293370D02*
D03*
X533720D02*
D03*
Y318771D02*
D03*
Y344170D02*
D03*
Y369571D02*
D03*
X458084Y539404D02*
D03*
X536824Y978374D02*
D03*
X511424D02*
D03*
X486024D02*
D03*
X460624D02*
D03*
X435224D02*
D03*
X409824D02*
D03*
X384424D02*
D03*
X359024D02*
D03*
X333624D02*
D03*
Y900534D02*
D03*
X359024D02*
D03*
X384424D02*
D03*
X409824D02*
D03*
X435224D02*
D03*
X460624D02*
D03*
X486024D02*
D03*
X511424D02*
D03*
X536824D02*
D03*
X562224D02*
D03*
D62*
X228214Y592114D02*
D03*
X562224Y978374D02*
D03*
D63*
X102484Y258734D02*
D03*
Y223174D02*
D03*
X97790Y511810D02*
D03*
Y476250D02*
D03*
X99060Y629921D02*
D03*
Y594361D02*
D03*
X412750Y66040D02*
D03*
X377190D02*
D03*
X204470Y67310D02*
D03*
X168910D02*
D03*
X102871Y121920D02*
D03*
Y157480D02*
D03*
X311150Y67310D02*
D03*
X275590D02*
D03*
D64*
X105024Y343824D02*
D03*
D65*
Y369224D02*
D03*
Y394624D02*
D03*
D66*
X769620Y262890D02*
D03*
Y237490D02*
D03*
X665480Y264160D02*
D03*
Y238760D02*
D03*
X582930Y74930D02*
D03*
Y100330D02*
D03*
Y204470D02*
D03*
Y229870D02*
D03*
X236220Y938531D02*
D03*
X261620D02*
D03*
D67*
X403860Y806450D02*
D03*
Y831850D02*
D03*
X718034Y1010724D02*
D03*
X668034D02*
D03*
X693034Y865724D02*
D03*
X718034D02*
D03*
X668034D02*
D03*
D68*
X255270Y798830D02*
D03*
X775970Y645160D02*
D03*
X774314Y771814D02*
D03*
D69*
X558414Y538134D02*
D03*
X533014D02*
D03*
X583814D02*
D03*
X609214D02*
D03*
X383154Y543214D02*
D03*
X651124Y794674D02*
D03*
X625724D02*
D03*
X600324D02*
D03*
X220980Y140970D02*
D03*
X337820Y138430D02*
D03*
D70*
X507614Y538134D02*
D03*
X408554Y543214D02*
D03*
X574924Y794674D02*
D03*
D71*
X195580Y140970D02*
D03*
X363220Y138430D02*
D03*
D72*
X453390Y184150D02*
D03*
D73*
Y133350D02*
D03*
D74*
X509270Y82230D02*
D03*
Y189230D02*
D03*
D75*
X163068Y502920D02*
D03*
X163576Y478282D02*
D03*
X239014Y502920D02*
D03*
X240030Y478790D02*
D03*
D76*
X637034Y940724D02*
D03*
X749034D02*
D03*
D77*
X156210Y373380D02*
D03*
X323850Y349250D02*
D03*
X553720Y293370D02*
D03*
X666750Y516890D02*
D03*
X317500Y504698D02*
D03*
X488188Y278638D02*
D03*
X239014Y229852D02*
D03*
X456692Y787146D02*
D03*
X307340Y916940D02*
D03*
X401096Y675132D02*
D03*
X529980Y469256D02*
D03*
X308102Y290830D02*
D03*
X415544Y306578D02*
D03*
X665734Y183134D02*
D03*
X291846Y728218D02*
D03*
X356108Y412242D02*
D03*
X432816Y422910D02*
D03*
X181292Y243142D02*
D03*
X414782Y608584D02*
D03*
X291846Y758952D02*
D03*
X430784Y770382D02*
D03*
X366639Y350266D02*
D03*
M02*
