G04*
G04 #@! TF.GenerationSoftware,Altium Limited,Altium Designer,24.4.1 (13)*
G04*
G04 Layer_Color=16711935*
%FSLAX44Y44*%
%MOMM*%
G71*
G04*
G04 #@! TF.SameCoordinates,F6539689-3043-445A-A8EF-E24C1B7FCDF9*
G04*
G04*
G04 #@! TF.FilePolarity,Negative*
G04*
G01*
G75*
%ADD30C,1.5032*%
%ADD31R,1.5032X1.5032*%
%ADD32C,1.7272*%
%ADD33C,2.3032*%
%ADD34R,2.1232X2.1232*%
%ADD35C,2.1232*%
%ADD36C,1.9812*%
%ADD37C,1.5240*%
%ADD38R,1.5240X1.5240*%
%ADD39C,2.0032*%
%ADD40C,1.7532*%
%ADD41R,1.7532X1.7532*%
%ADD42C,1.8032*%
G04:AMPARAMS|DCode=43|XSize=1.8032mm|YSize=1.8032mm|CornerRadius=0.5016mm|HoleSize=0mm|Usage=FLASHONLY|Rotation=0.000|XOffset=0mm|YOffset=0mm|HoleType=Round|Shape=RoundedRectangle|*
%AMROUNDEDRECTD43*
21,1,1.8032,0.8000,0,0,0.0*
21,1,0.8000,1.8032,0,0,0.0*
1,1,1.0032,0.4000,-0.4000*
1,1,1.0032,-0.4000,-0.4000*
1,1,1.0032,-0.4000,0.4000*
1,1,1.0032,0.4000,0.4000*
%
%ADD43ROUNDEDRECTD43*%
%ADD44R,1.8032X1.8032*%
%ADD45R,1.5500X1.5500*%
%ADD46C,1.5500*%
%ADD47O,1.7032X2.2032*%
%ADD48O,1.7272X2.2032*%
%ADD49C,1.7032*%
%ADD50C,1.6032*%
%ADD51C,5.0032*%
%ADD52C,1.4732*%
D30*
X228214Y746414D02*
D03*
X253614D02*
D03*
X279014D02*
D03*
X304414D02*
D03*
X329814D02*
D03*
X355214D02*
D03*
X380614D02*
D03*
X406014D02*
D03*
X431414D02*
D03*
X456814D02*
D03*
X482214D02*
D03*
X507614D02*
D03*
X533014D02*
D03*
X558414D02*
D03*
X583814D02*
D03*
X609214D02*
D03*
X634614D02*
D03*
X660014D02*
D03*
X685414D02*
D03*
X710814D02*
D03*
Y592114D02*
D03*
X685414D02*
D03*
X660014D02*
D03*
X634614D02*
D03*
X609214D02*
D03*
X583814D02*
D03*
X558414D02*
D03*
X533014D02*
D03*
X507614D02*
D03*
X482214D02*
D03*
X456814D02*
D03*
X431414D02*
D03*
X406014D02*
D03*
X380614D02*
D03*
X355214D02*
D03*
X329814D02*
D03*
X304414D02*
D03*
X279014D02*
D03*
X253614D02*
D03*
X775584Y700694D02*
D03*
X93980Y701040D02*
D03*
X474980Y370840D02*
D03*
X319654Y543214D02*
D03*
X611820Y369571D02*
D03*
Y344170D02*
D03*
Y318771D02*
D03*
Y293370D02*
D03*
X533720D02*
D03*
Y318771D02*
D03*
Y344170D02*
D03*
Y369571D02*
D03*
X458084Y539404D02*
D03*
X536824Y978374D02*
D03*
X511424D02*
D03*
X486024D02*
D03*
X460624D02*
D03*
X435224D02*
D03*
X409824D02*
D03*
X384424D02*
D03*
X359024D02*
D03*
X333624D02*
D03*
Y900534D02*
D03*
X359024D02*
D03*
X384424D02*
D03*
X409824D02*
D03*
X435224D02*
D03*
X460624D02*
D03*
X486024D02*
D03*
X511424D02*
D03*
X536824D02*
D03*
X562224D02*
D03*
D31*
X228214Y592114D02*
D03*
X562224Y978374D02*
D03*
D32*
X579120Y1262380D02*
D03*
X553720D02*
D03*
X528320D02*
D03*
X502920D02*
D03*
X477520D02*
D03*
X452120D02*
D03*
X426720D02*
D03*
X401320D02*
D03*
X375920D02*
D03*
X350520D02*
D03*
X325120D02*
D03*
X299720D02*
D03*
X246380Y140970D02*
D03*
X312420Y138430D02*
D03*
D33*
X102484Y258734D02*
D03*
Y223174D02*
D03*
X97790Y511810D02*
D03*
Y476250D02*
D03*
X99060Y629921D02*
D03*
Y594361D02*
D03*
X412750Y66040D02*
D03*
X377190D02*
D03*
X204470Y67310D02*
D03*
X168910D02*
D03*
X102871Y121920D02*
D03*
Y157480D02*
D03*
X311150Y67310D02*
D03*
X275590D02*
D03*
D34*
X105024Y343824D02*
D03*
D35*
Y369224D02*
D03*
Y394624D02*
D03*
D36*
X769620Y262890D02*
D03*
Y237490D02*
D03*
X665480Y264160D02*
D03*
Y238760D02*
D03*
X582930Y74930D02*
D03*
Y100330D02*
D03*
Y204470D02*
D03*
Y229870D02*
D03*
X236220Y938531D02*
D03*
X261620D02*
D03*
D37*
X643920Y833120D02*
D03*
D38*
X567660D02*
D03*
D39*
X403860Y806450D02*
D03*
Y831850D02*
D03*
X718034Y1010724D02*
D03*
X668034D02*
D03*
X693034Y865724D02*
D03*
X718034D02*
D03*
X668034D02*
D03*
D40*
X255270Y849630D02*
D03*
Y824230D02*
D03*
X775970Y594360D02*
D03*
Y619760D02*
D03*
X774314Y822614D02*
D03*
Y797214D02*
D03*
D41*
X255270Y798830D02*
D03*
X775970Y645160D02*
D03*
X774314Y771814D02*
D03*
D42*
X558414Y538134D02*
D03*
X533014D02*
D03*
X583814D02*
D03*
X609214D02*
D03*
X383154Y543214D02*
D03*
X651124Y794674D02*
D03*
X625724D02*
D03*
X600324D02*
D03*
X220980Y140970D02*
D03*
X337820Y138430D02*
D03*
D43*
X507614Y538134D02*
D03*
X408554Y543214D02*
D03*
X574924Y794674D02*
D03*
D44*
X195580Y140970D02*
D03*
X363220Y138430D02*
D03*
D45*
X378024Y188884D02*
D03*
D46*
X289224D02*
D03*
D47*
X453390Y184150D02*
D03*
D48*
Y133350D02*
D03*
D49*
X509270Y82230D02*
D03*
Y189230D02*
D03*
D50*
X163068Y502920D02*
D03*
X163576Y478282D02*
D03*
X239014Y502920D02*
D03*
X240030Y478790D02*
D03*
D51*
X637034Y940724D02*
D03*
X749034D02*
D03*
D52*
X156210Y373380D02*
D03*
X323850Y349250D02*
D03*
X553720Y293370D02*
D03*
X666750Y516890D02*
D03*
X317500Y504698D02*
D03*
X488188Y278638D02*
D03*
X239014Y229852D02*
D03*
X456692Y787146D02*
D03*
X307340Y916940D02*
D03*
X401096Y675132D02*
D03*
X529980Y469256D02*
D03*
X308102Y290830D02*
D03*
X415544Y306578D02*
D03*
X665734Y183134D02*
D03*
X291846Y728218D02*
D03*
X356108Y412242D02*
D03*
X432816Y422910D02*
D03*
X181292Y243142D02*
D03*
X414782Y608584D02*
D03*
X291846Y758952D02*
D03*
X430784Y770382D02*
D03*
X366639Y350266D02*
D03*
M02*
